<mxfile host="app.diagrams.net" agent="Mozilla/5.0 (Windows NT 10.0; Win64; x64) AppleWebKit/537.36 (KHTML, like Gecko) Chrome/135.0.0.0 Safari/537.36 OPR/120.0.0.0" version="28.1.2">
  <diagram id="R2lEEEUBdFMjLlhIrx00" name="Page-1">
    <mxGraphModel dx="1380" dy="752" grid="1" gridSize="10" guides="1" tooltips="1" connect="1" arrows="1" fold="1" page="1" pageScale="1" pageWidth="850" pageHeight="1100" math="0" shadow="0" extFonts="Permanent Marker^https://fonts.googleapis.com/css?family=Permanent+Marker">
      <root>
        <mxCell id="0" />
        <mxCell id="1" parent="0" />
        <mxCell id="lU9GJWGYHthMBRA5m0Ma-1" value="Покупець" style="whiteSpace=wrap;html=1;align=center;" parent="1" vertex="1">
          <mxGeometry x="220" y="400" width="120" height="40" as="geometry" />
        </mxCell>
        <mxCell id="lU9GJWGYHthMBRA5m0Ma-2" value="Товар" style="whiteSpace=wrap;html=1;align=center;" parent="1" vertex="1">
          <mxGeometry x="620" y="400" width="120" height="40" as="geometry" />
        </mxCell>
        <mxCell id="lU9GJWGYHthMBRA5m0Ma-3" value="Категорія" style="whiteSpace=wrap;html=1;align=center;" parent="1" vertex="1">
          <mxGeometry x="620" y="200" width="120" height="40" as="geometry" />
        </mxCell>
        <mxCell id="lU9GJWGYHthMBRA5m0Ma-4" value="Адреса" style="whiteSpace=wrap;html=1;align=center;" parent="1" vertex="1">
          <mxGeometry x="220" y="200" width="120" height="40" as="geometry" />
        </mxCell>
        <mxCell id="lU9GJWGYHthMBRA5m0Ma-8" value="Доставляється" style="shape=rhombus;perimeter=rhombusPerimeter;whiteSpace=wrap;html=1;align=center;" parent="1" vertex="1">
          <mxGeometry x="220" y="290" width="120" height="70" as="geometry" />
        </mxCell>
        <mxCell id="lU9GJWGYHthMBRA5m0Ma-15" value="" style="endArrow=ERoneToMany;html=1;rounded=0;entryX=0.5;entryY=1;entryDx=0;entryDy=0;exitX=0.5;exitY=0;exitDx=0;exitDy=0;startArrow=none;startFill=0;endFill=0;" parent="1" source="lU9GJWGYHthMBRA5m0Ma-8" target="lU9GJWGYHthMBRA5m0Ma-4" edge="1">
          <mxGeometry width="50" height="50" relative="1" as="geometry">
            <mxPoint x="230" y="290" as="sourcePoint" />
            <mxPoint x="280" y="260" as="targetPoint" />
          </mxGeometry>
        </mxCell>
        <mxCell id="lU9GJWGYHthMBRA5m0Ma-16" value="" style="endArrow=none;html=1;rounded=0;entryX=0.5;entryY=1;entryDx=0;entryDy=0;exitX=0.5;exitY=0;exitDx=0;exitDy=0;endFill=0;startArrow=ERone;startFill=0;" parent="1" source="lU9GJWGYHthMBRA5m0Ma-1" target="lU9GJWGYHthMBRA5m0Ma-8" edge="1">
          <mxGeometry width="50" height="50" relative="1" as="geometry">
            <mxPoint x="450" y="360" as="sourcePoint" />
            <mxPoint x="450" y="310" as="targetPoint" />
          </mxGeometry>
        </mxCell>
        <mxCell id="lU9GJWGYHthMBRA5m0Ma-22" value="Сортує" style="shape=rhombus;perimeter=rhombusPerimeter;whiteSpace=wrap;html=1;align=center;" parent="1" vertex="1">
          <mxGeometry x="620" y="290" width="120" height="70" as="geometry" />
        </mxCell>
        <mxCell id="lU9GJWGYHthMBRA5m0Ma-23" value="" style="endArrow=ERoneToMany;html=1;rounded=0;startArrow=none;startFill=0;endFill=0;exitX=0.5;exitY=1;exitDx=0;exitDy=0;entryX=0.5;entryY=0;entryDx=0;entryDy=0;" parent="1" source="lU9GJWGYHthMBRA5m0Ma-22" target="lU9GJWGYHthMBRA5m0Ma-2" edge="1">
          <mxGeometry width="50" height="50" relative="1" as="geometry">
            <mxPoint x="700" y="370" as="sourcePoint" />
            <mxPoint x="720" y="390" as="targetPoint" />
            <Array as="points" />
          </mxGeometry>
        </mxCell>
        <mxCell id="lU9GJWGYHthMBRA5m0Ma-24" value="" style="endArrow=none;html=1;rounded=0;entryX=0.5;entryY=0;entryDx=0;entryDy=0;exitX=0.5;exitY=1;exitDx=0;exitDy=0;endFill=0;startArrow=ERone;startFill=0;" parent="1" source="lU9GJWGYHthMBRA5m0Ma-3" target="lU9GJWGYHthMBRA5m0Ma-22" edge="1">
          <mxGeometry width="50" height="50" relative="1" as="geometry">
            <mxPoint x="679.71" y="240" as="sourcePoint" />
            <mxPoint x="679.71" y="280" as="targetPoint" />
          </mxGeometry>
        </mxCell>
        <mxCell id="lU9GJWGYHthMBRA5m0Ma-26" value="Замовлення" style="shape=rhombus;perimeter=rhombusPerimeter;whiteSpace=wrap;html=1;align=center;" parent="1" vertex="1">
          <mxGeometry x="420" y="385" width="120" height="70" as="geometry" />
        </mxCell>
        <mxCell id="lU9GJWGYHthMBRA5m0Ma-27" value="" style="endArrow=none;html=1;rounded=0;exitX=1;exitY=0.5;exitDx=0;exitDy=0;entryX=0;entryY=0.5;entryDx=0;entryDy=0;startArrow=ERoneToMany;startFill=0;endFill=0;" parent="1" source="lU9GJWGYHthMBRA5m0Ma-1" target="lU9GJWGYHthMBRA5m0Ma-26" edge="1">
          <mxGeometry width="50" height="50" relative="1" as="geometry">
            <mxPoint x="380" y="370" as="sourcePoint" />
            <mxPoint x="430" y="320" as="targetPoint" />
          </mxGeometry>
        </mxCell>
        <mxCell id="lU9GJWGYHthMBRA5m0Ma-28" value="" style="endArrow=none;html=1;rounded=0;exitX=0;exitY=0.5;exitDx=0;exitDy=0;entryX=1;entryY=0.5;entryDx=0;entryDy=0;endFill=0;startArrow=ERoneToMany;startFill=0;" parent="1" source="lU9GJWGYHthMBRA5m0Ma-2" target="lU9GJWGYHthMBRA5m0Ma-26" edge="1">
          <mxGeometry width="50" height="50" relative="1" as="geometry">
            <mxPoint x="380" y="370" as="sourcePoint" />
            <mxPoint x="430" y="320" as="targetPoint" />
          </mxGeometry>
        </mxCell>
        <mxCell id="lU9GJWGYHthMBRA5m0Ma-29" value="" style="endArrow=none;html=1;rounded=0;exitX=0.5;exitY=0;exitDx=0;exitDy=0;entryX=0.5;entryY=1;entryDx=0;entryDy=0;" parent="1" source="lU9GJWGYHthMBRA5m0Ma-4" target="lU9GJWGYHthMBRA5m0Ma-38" edge="1">
          <mxGeometry width="50" height="50" relative="1" as="geometry">
            <mxPoint x="260" y="150" as="sourcePoint" />
            <mxPoint x="280" y="170" as="targetPoint" />
          </mxGeometry>
        </mxCell>
        <mxCell id="lU9GJWGYHthMBRA5m0Ma-30" value="" style="endArrow=none;html=1;rounded=0;entryX=0.5;entryY=1;entryDx=0;entryDy=0;" parent="1" target="lU9GJWGYHthMBRA5m0Ma-26" edge="1">
          <mxGeometry width="50" height="50" relative="1" as="geometry">
            <mxPoint x="420" y="480" as="sourcePoint" />
            <mxPoint x="450" y="500" as="targetPoint" />
          </mxGeometry>
        </mxCell>
        <mxCell id="lU9GJWGYHthMBRA5m0Ma-31" value="" style="endArrow=none;html=1;rounded=0;entryX=0.5;entryY=1;entryDx=0;entryDy=0;" parent="1" edge="1">
          <mxGeometry width="50" height="50" relative="1" as="geometry">
            <mxPoint x="540" y="480" as="sourcePoint" />
            <mxPoint x="480" y="455" as="targetPoint" />
          </mxGeometry>
        </mxCell>
        <mxCell id="lU9GJWGYHthMBRA5m0Ma-32" value="Кількість товару" style="ellipse;whiteSpace=wrap;html=1;align=center;" parent="1" vertex="1">
          <mxGeometry x="370" y="480" width="100" height="40" as="geometry" />
        </mxCell>
        <mxCell id="lU9GJWGYHthMBRA5m0Ma-33" value="Загальна вартість" style="ellipse;whiteSpace=wrap;html=1;align=center;" parent="1" vertex="1">
          <mxGeometry x="485" y="480" width="100" height="40" as="geometry" />
        </mxCell>
        <mxCell id="lU9GJWGYHthMBRA5m0Ma-34" value="" style="endArrow=none;html=1;rounded=0;exitX=1;exitY=0.5;exitDx=0;exitDy=0;entryX=0.5;entryY=1;entryDx=0;entryDy=0;" parent="1" source="lU9GJWGYHthMBRA5m0Ma-4" target="lU9GJWGYHthMBRA5m0Ma-37" edge="1">
          <mxGeometry width="50" height="50" relative="1" as="geometry">
            <mxPoint x="330" y="220" as="sourcePoint" />
            <mxPoint x="390" y="170" as="targetPoint" />
            <Array as="points">
              <mxPoint x="390" y="220" />
            </Array>
          </mxGeometry>
        </mxCell>
        <mxCell id="lU9GJWGYHthMBRA5m0Ma-35" value="" style="endArrow=none;html=1;rounded=0;exitX=0;exitY=0.5;exitDx=0;exitDy=0;entryX=0.5;entryY=1;entryDx=0;entryDy=0;" parent="1" source="lU9GJWGYHthMBRA5m0Ma-4" target="lU9GJWGYHthMBRA5m0Ma-36" edge="1">
          <mxGeometry width="50" height="50" relative="1" as="geometry">
            <mxPoint x="220" y="220" as="sourcePoint" />
            <mxPoint x="170" y="170" as="targetPoint" />
            <Array as="points">
              <mxPoint x="170" y="220" />
            </Array>
          </mxGeometry>
        </mxCell>
        <mxCell id="lU9GJWGYHthMBRA5m0Ma-36" value="&lt;u&gt;Номер адреси&lt;/u&gt;" style="ellipse;whiteSpace=wrap;html=1;align=center;" parent="1" vertex="1">
          <mxGeometry x="120" y="130" width="100" height="40" as="geometry" />
        </mxCell>
        <mxCell id="lU9GJWGYHthMBRA5m0Ma-37" value="Вулиця" style="ellipse;whiteSpace=wrap;html=1;align=center;" parent="1" vertex="1">
          <mxGeometry x="340" y="130" width="100" height="40" as="geometry" />
        </mxCell>
        <mxCell id="lU9GJWGYHthMBRA5m0Ma-38" value="Місто" style="ellipse;whiteSpace=wrap;html=1;align=center;" parent="1" vertex="1">
          <mxGeometry x="230" y="130" width="100" height="40" as="geometry" />
        </mxCell>
        <mxCell id="lU9GJWGYHthMBRA5m0Ma-39" value="" style="endArrow=none;html=1;rounded=0;entryX=0.5;entryY=1;entryDx=0;entryDy=0;exitX=0.5;exitY=0;exitDx=0;exitDy=0;" parent="1" source="lU9GJWGYHthMBRA5m0Ma-3" target="lU9GJWGYHthMBRA5m0Ma-42" edge="1">
          <mxGeometry width="50" height="50" relative="1" as="geometry">
            <mxPoint x="660" y="190" as="sourcePoint" />
            <mxPoint x="680" y="170" as="targetPoint" />
          </mxGeometry>
        </mxCell>
        <mxCell id="lU9GJWGYHthMBRA5m0Ma-40" value="" style="endArrow=none;html=1;rounded=0;exitX=1;exitY=0.5;exitDx=0;exitDy=0;entryX=0.5;entryY=1;entryDx=0;entryDy=0;" parent="1" source="lU9GJWGYHthMBRA5m0Ma-3" target="lU9GJWGYHthMBRA5m0Ma-41" edge="1">
          <mxGeometry width="50" height="50" relative="1" as="geometry">
            <mxPoint x="740" y="220" as="sourcePoint" />
            <mxPoint x="790" y="170" as="targetPoint" />
            <Array as="points">
              <mxPoint x="790" y="220" />
            </Array>
          </mxGeometry>
        </mxCell>
        <mxCell id="lU9GJWGYHthMBRA5m0Ma-41" value="Attribute" style="ellipse;whiteSpace=wrap;html=1;align=center;" parent="1" vertex="1">
          <mxGeometry x="740" y="70" width="100" height="40" as="geometry" />
        </mxCell>
        <mxCell id="lU9GJWGYHthMBRA5m0Ma-42" value="Attribute" style="ellipse;whiteSpace=wrap;html=1;align=center;" parent="1" vertex="1">
          <mxGeometry x="630" y="70" width="100" height="40" as="geometry" />
        </mxCell>
        <mxCell id="lU9GJWGYHthMBRA5m0Ma-45" value="&lt;u&gt;Номер покупця&lt;/u&gt;" style="ellipse;whiteSpace=wrap;html=1;align=center;" parent="1" vertex="1">
          <mxGeometry x="10" y="490" width="100" height="40" as="geometry" />
        </mxCell>
        <mxCell id="lU9GJWGYHthMBRA5m0Ma-46" value="Номер телефону" style="ellipse;whiteSpace=wrap;html=1;align=center;" parent="1" vertex="1">
          <mxGeometry x="230" y="490" width="100" height="40" as="geometry" />
        </mxCell>
        <mxCell id="lU9GJWGYHthMBRA5m0Ma-49" value="" style="endArrow=none;html=1;rounded=0;entryX=0;entryY=0.5;entryDx=0;entryDy=0;exitX=0.5;exitY=0;exitDx=0;exitDy=0;" parent="1" source="lU9GJWGYHthMBRA5m0Ma-50" target="lU9GJWGYHthMBRA5m0Ma-1" edge="1">
          <mxGeometry width="50" height="50" relative="1" as="geometry">
            <mxPoint x="180" y="470" as="sourcePoint" />
            <mxPoint x="210" y="430" as="targetPoint" />
            <Array as="points">
              <mxPoint x="180" y="420" />
            </Array>
          </mxGeometry>
        </mxCell>
        <mxCell id="lU9GJWGYHthMBRA5m0Ma-50" value="ПІБ" style="ellipse;whiteSpace=wrap;html=1;align=center;" parent="1" vertex="1">
          <mxGeometry x="120" y="490" width="100" height="40" as="geometry" />
        </mxCell>
        <mxCell id="lU9GJWGYHthMBRA5m0Ma-51" value="" style="endArrow=none;html=1;rounded=0;exitX=0.5;exitY=0;exitDx=0;exitDy=0;" parent="1" source="lU9GJWGYHthMBRA5m0Ma-46" edge="1">
          <mxGeometry width="50" height="50" relative="1" as="geometry">
            <mxPoint x="230" y="480" as="sourcePoint" />
            <mxPoint x="180" y="420" as="targetPoint" />
          </mxGeometry>
        </mxCell>
        <mxCell id="lU9GJWGYHthMBRA5m0Ma-52" value="" style="endArrow=none;html=1;rounded=0;exitX=0.5;exitY=0;exitDx=0;exitDy=0;" parent="1" source="lU9GJWGYHthMBRA5m0Ma-45" edge="1">
          <mxGeometry width="50" height="50" relative="1" as="geometry">
            <mxPoint x="69.99999999999977" y="480" as="sourcePoint" />
            <mxPoint x="179.99999999999977" y="420" as="targetPoint" />
          </mxGeometry>
        </mxCell>
        <mxCell id="lU9GJWGYHthMBRA5m0Ma-60" value="&lt;u&gt;Номер товару&lt;/u&gt;" style="ellipse;whiteSpace=wrap;html=1;align=center;" parent="1" vertex="1">
          <mxGeometry x="540" y="530" width="100" height="40" as="geometry" />
        </mxCell>
        <mxCell id="lU9GJWGYHthMBRA5m0Ma-61" value="Назва" style="ellipse;whiteSpace=wrap;html=1;align=center;" parent="1" vertex="1">
          <mxGeometry x="600" y="580" width="100" height="40" as="geometry" />
        </mxCell>
        <mxCell id="lU9GJWGYHthMBRA5m0Ma-62" value="Опис" style="ellipse;whiteSpace=wrap;html=1;align=center;" parent="1" vertex="1">
          <mxGeometry x="720" y="580" width="100" height="40" as="geometry" />
        </mxCell>
        <mxCell id="lU9GJWGYHthMBRA5m0Ma-63" value="Ціна" style="ellipse;whiteSpace=wrap;html=1;align=center;" parent="1" vertex="1">
          <mxGeometry x="750" y="500" width="100" height="40" as="geometry" />
        </mxCell>
        <mxCell id="lU9GJWGYHthMBRA5m0Ma-64" value="Кількість" style="ellipse;whiteSpace=wrap;html=1;align=center;" parent="1" vertex="1">
          <mxGeometry x="750" y="400" width="100" height="40" as="geometry" />
        </mxCell>
        <mxCell id="lU9GJWGYHthMBRA5m0Ma-67" value="" style="endArrow=none;html=1;rounded=0;entryX=0;entryY=0.5;entryDx=0;entryDy=0;exitX=1;exitY=0.5;exitDx=0;exitDy=0;" parent="1" source="lU9GJWGYHthMBRA5m0Ma-2" target="lU9GJWGYHthMBRA5m0Ma-64" edge="1">
          <mxGeometry width="50" height="50" relative="1" as="geometry">
            <mxPoint x="710" y="510" as="sourcePoint" />
            <mxPoint x="760" y="460" as="targetPoint" />
          </mxGeometry>
        </mxCell>
        <mxCell id="lU9GJWGYHthMBRA5m0Ma-68" value="" style="endArrow=none;html=1;rounded=0;entryX=0;entryY=0.5;entryDx=0;entryDy=0;entryPerimeter=0;exitX=0.5;exitY=1;exitDx=0;exitDy=0;" parent="1" source="lU9GJWGYHthMBRA5m0Ma-2" target="lU9GJWGYHthMBRA5m0Ma-63" edge="1">
          <mxGeometry width="50" height="50" relative="1" as="geometry">
            <mxPoint x="660" y="520" as="sourcePoint" />
            <mxPoint x="710" y="470" as="targetPoint" />
          </mxGeometry>
        </mxCell>
        <mxCell id="lU9GJWGYHthMBRA5m0Ma-69" value="" style="endArrow=none;html=1;rounded=0;entryX=0.5;entryY=1;entryDx=0;entryDy=0;exitX=0.5;exitY=0;exitDx=0;exitDy=0;" parent="1" source="lU9GJWGYHthMBRA5m0Ma-60" target="lU9GJWGYHthMBRA5m0Ma-2" edge="1">
          <mxGeometry width="50" height="50" relative="1" as="geometry">
            <mxPoint x="630" y="520" as="sourcePoint" />
            <mxPoint x="680" y="470" as="targetPoint" />
          </mxGeometry>
        </mxCell>
        <mxCell id="lU9GJWGYHthMBRA5m0Ma-70" value="" style="endArrow=none;html=1;rounded=0;exitX=0.5;exitY=0;exitDx=0;exitDy=0;" parent="1" source="lU9GJWGYHthMBRA5m0Ma-61" edge="1">
          <mxGeometry width="50" height="50" relative="1" as="geometry">
            <mxPoint x="580" y="530" as="sourcePoint" />
            <mxPoint x="680" y="440" as="targetPoint" />
          </mxGeometry>
        </mxCell>
        <mxCell id="lU9GJWGYHthMBRA5m0Ma-71" value="" style="endArrow=none;html=1;rounded=0;entryX=0.5;entryY=1;entryDx=0;entryDy=0;exitX=0.5;exitY=0;exitDx=0;exitDy=0;" parent="1" source="lU9GJWGYHthMBRA5m0Ma-62" target="lU9GJWGYHthMBRA5m0Ma-2" edge="1">
          <mxGeometry width="50" height="50" relative="1" as="geometry">
            <mxPoint x="580" y="530" as="sourcePoint" />
            <mxPoint x="630" y="480" as="targetPoint" />
          </mxGeometry>
        </mxCell>
        <mxCell id="lU9GJWGYHthMBRA5m0Ma-73" value="" style="endArrow=none;html=1;rounded=0;entryX=0.5;entryY=1;entryDx=0;entryDy=0;" parent="1" target="lU9GJWGYHthMBRA5m0Ma-74" edge="1">
          <mxGeometry width="50" height="50" relative="1" as="geometry">
            <mxPoint x="390" y="220" as="sourcePoint" />
            <mxPoint x="500" y="170" as="targetPoint" />
            <Array as="points">
              <mxPoint x="500" y="220" />
            </Array>
          </mxGeometry>
        </mxCell>
        <mxCell id="lU9GJWGYHthMBRA5m0Ma-74" value="Поштовий індекс" style="ellipse;whiteSpace=wrap;html=1;align=center;" parent="1" vertex="1">
          <mxGeometry x="450" y="130" width="100" height="40" as="geometry" />
        </mxCell>
        <mxCell id="lU9GJWGYHthMBRA5m0Ma-78" value="" style="endArrow=none;html=1;rounded=0;entryX=0.5;entryY=1;entryDx=0;entryDy=0;" parent="1" edge="1">
          <mxGeometry width="50" height="50" relative="1" as="geometry">
            <mxPoint x="112.5" y="555" as="sourcePoint" />
            <mxPoint x="172.5" y="530" as="targetPoint" />
          </mxGeometry>
        </mxCell>
        <mxCell id="lU9GJWGYHthMBRA5m0Ma-79" value="" style="endArrow=none;html=1;rounded=0;entryX=0.5;entryY=1;entryDx=0;entryDy=0;" parent="1" edge="1">
          <mxGeometry width="50" height="50" relative="1" as="geometry">
            <mxPoint x="232.5" y="555" as="sourcePoint" />
            <mxPoint x="172.5" y="530" as="targetPoint" />
          </mxGeometry>
        </mxCell>
        <mxCell id="lU9GJWGYHthMBRA5m0Ma-80" value="Прізвище" style="ellipse;whiteSpace=wrap;html=1;align=center;" parent="1" vertex="1">
          <mxGeometry x="62.5" y="555" width="100" height="40" as="geometry" />
        </mxCell>
        <mxCell id="lU9GJWGYHthMBRA5m0Ma-81" value="По батькові" style="ellipse;whiteSpace=wrap;html=1;align=center;" parent="1" vertex="1">
          <mxGeometry x="177.5" y="555" width="100" height="40" as="geometry" />
        </mxCell>
        <mxCell id="lU9GJWGYHthMBRA5m0Ma-82" value="" style="endArrow=none;html=1;rounded=0;exitX=0.5;exitY=0;exitDx=0;exitDy=0;" parent="1" source="lU9GJWGYHthMBRA5m0Ma-83" edge="1">
          <mxGeometry width="50" height="50" relative="1" as="geometry">
            <mxPoint x="170" y="610" as="sourcePoint" />
            <mxPoint x="170" y="530" as="targetPoint" />
          </mxGeometry>
        </mxCell>
        <mxCell id="lU9GJWGYHthMBRA5m0Ma-83" value="Ім&#39;я" style="ellipse;whiteSpace=wrap;html=1;align=center;" parent="1" vertex="1">
          <mxGeometry x="120" y="600" width="100" height="40" as="geometry" />
        </mxCell>
        <mxCell id="lU9GJWGYHthMBRA5m0Ma-85" value="" style="endArrow=none;html=1;rounded=0;exitX=1;exitY=0.5;exitDx=0;exitDy=0;entryX=0.5;entryY=1;entryDx=0;entryDy=0;" parent="1" target="lU9GJWGYHthMBRA5m0Ma-86" edge="1">
          <mxGeometry width="50" height="50" relative="1" as="geometry">
            <mxPoint x="620" y="225" as="sourcePoint" />
            <mxPoint x="570" y="185" as="targetPoint" />
            <Array as="points">
              <mxPoint x="570" y="225" />
            </Array>
          </mxGeometry>
        </mxCell>
        <mxCell id="lU9GJWGYHthMBRA5m0Ma-86" value="Attribute" style="ellipse;whiteSpace=wrap;html=1;align=center;" parent="1" vertex="1">
          <mxGeometry x="520" y="70" width="100" height="40" as="geometry" />
        </mxCell>
      </root>
    </mxGraphModel>
  </diagram>
</mxfile>
